<svg xmlns="http://www.w3.org/2000/svg" viewBox="0 0 720 540"><defs><style>.cls-1{fill:none;}.cls-2{fill:#fff;stroke:#333;stroke-linecap:round;stroke-linejoin:round;stroke-width:2px;}</style></defs><g id="Sea"><rect class="cls-1" width="720" height="540"/></g><g id="New_Zealand" data-name="New Zealand"><path class="cls-2" d="M553.27,430.6l0,0,0,.06Zm-374.8,83.75-.11-.34.1-.17-1.32.2h-.47l.06-.2.07-.4,0-.19-.39.11-1.41.2h-.4l-.51-.19-.39,0-.39.15-.5.09.62.49-.07.64-.35.71-.2.66-.14.9-.37.69-.58.53L167.86,520l-1.14,1.19.3,1.66.68-.61.38-.26.25,0,.36.36.34.21.38.11.53,0,.43-.06.3-.19.16-.31v-.44l-.15-.35-.23-.21-.3-.17-.32-.27h.42l.68.31.41.08.24-.11-.16-.26-.33-.27-.26-.16.38-.3.41,0,.39.25.32.3.15.43-.18.45-.29.45-.18.38.74-.31.34-.2.31-.3.47.63.84.29.92.21.7.38.45.16.46-.27.33-.49.07-.5-.22-.19-.48-.22-.52-.16-.4,0v-.2l.24,0,.51,0,.25,0-.12-.25,0-.25,0-.26.13-.26-.38,0-.77.07-.45,0,.33-.48.27-.52-.62,0-1-.37h-.58v-.2l.79-.11,1.55.11.7-.2-.42-.2-.47-.11h-.48l-.45.11.59-.48.23-.12-.09-.17-.13-.43.19.06.42.08.19.06-.28-.72-.21-.28-.31-.22.5-.19.35.12.36.08.51-.31.1-.22,0-.23.09-.18.27-.07h1.23l-.2-.15Zm-4.42,8.9-.87-.35-.32,0-.19.07-.38.26-2.25.36h-.41l-.81-.45-.46-.18-.54,0,.23.37.29.24.68.39.26.25.13.18.21.13,4,.22.21-.27.4,0,.41,0,.78-.26.83-.12.41-.14-.62-.28Zm379.21-92.38,0-.11,0,0Zm-1.59-.43,0,0,0,0Zm-6.19,56.4-.39-.14h-.42l-.4.09-.49.27-1.24,1-.31.35,0,.8.66.43.92.15,1.2,0,.24,0,.12-.2,0-.49.12-.49.22-.49.13-.49-.13-.49Zm7-55.86v.07l.12.07V431Zm-.44-.46v.11l.31-.13-.08,0Zm143.38-96.33,0-.2,0-.2v-.2l-.1-.17-.33-.15-.49-.06-.52,0-.39.13-.37.3.06.16.24.21.2.43-.09.23-.47.75-.19.23.08.11-.11.08.07.11.11.27.08.11-.12.43.54-.12,1-.43.21-.65.32-.35,1-.41-.55-.47Zm-3.32-16.42-.61-.2-1.54-1-.33-.09-1.06-.12-.25-.12-.49-.35-.21-.09-.55.05-.26.32-.19.5-.38.55-.56.22-2.28-.1-.25-.13-.54-.52,0-.11-.38.1,0,.24.1.27,0,.22-.57.28-.56.05-.52.14-.47.52.62.71,1.88-.23.68.42.41-.11.38.07.24,0-.06-.44.23-.2.24.15.24,0,.28-.12.39,0,.35.1.29.19.5.52.45.63.76,2,0,.75-.56.42-.64.27-.19.32-.33.23-1.66.83-.6.18-.25.19.09.17.23.16.17.19.38,1.27.07.6-.05.67.15.29.45.16,1.55.23.19,0,.28-.6,1.2-.29.71-.42.71-.14.28-.14.7,0,1.07.11.77-.14-.2-.76-.25-.2-.65-.25-.29-.29-.35-.56-.06-.31,0-.48,0-.71-1.09.62-.51-.49,0-.4.1-.39.06-.4-.12-.43-.66-1.18.2-.4,2.08-1.12-2.19-.78-.4-.45.06-.74.6-.08,1.36.45,1.37.21.7.34.34.69-.21.57-.52.61-.6.49-.44.23.09.33v.33l-.14.73,0,.29.16.1.18-.08.13-.23.2-.59.31-.47,1.56-1.7,1.07-.86,1.11-.33.92.69.1-.48.23-.34.32-.16.4.06,0-.2ZM187.16,380.52l-.08-.15h-.21l-.13,0h-.12l-.5.13-.06.06,0,.14-.16.12-.08.12.06.08.35.09h.26l.57-.46ZM197.43,397h-.18l-.43,0,.26.23.38.31,0-.18,0-.24Zm-11.8-15.61-.09,0-.06.15,0,.17.35.1.07,0v-.2l-.11-.16Zm3,2.34-.45.1-.39.28,0,.39.08.33,0,.1.12.07.29-.11.81-.53.19-.22-.15-.24Zm-.2,56.54-.17-.26.25-.61.15-.19-.54.13-1.47,1.07v.22l1.07-.2.23.09.28.43.15.17.28.11v-.34l-.1-.33Zm-3.54-66.06.47-.16.41-.17.36-.05.32-.13v-.15l-.41-.14-.42,0-.29.16h-.45l-.6.14-.1.25v.12l.14.12Zm1-1.79,1.82-1.51.5-.05.42.56,0,.34.08.59.16.58.17.31.22.05h.27l.23-.11.21-.53.24.15.21.29.06.16.65-.07.51-.27.34-.46.11-.64-.08-.63-.24-.66-.39-.57-.54-.3-.27,0-.54,0-2.35.57-.74,0-.34.07-.23.43-.34.45-.08.09-.34.2-.35.48-.28.53-.15.38.62-.15ZM411.87,241.82l-.78.08-.3.06-.43.29-.36.07-.37-.08-.42-.2-.4-.26-.3-.28-.28.08-.61.1-.56.3-.32,0-.32-.08-.33,0-.53.26-.4.28-.43.13-.64-.16-.31.15-.82.18h-.69l.1-.34.4-.29.53-.25.54-.11.45.14.2-.3.31-.13.35,0,.36.19.47-.42.78-.18h1.53l.41-.06.21-.16.15-.19.24-.19.59-.28,0,.06.09,0,.37-.1.13-.05-.18-.45-.2-.26-.62-.51-.23-.29-.21-.38V238l.44.14.1-.28.21-.35.2-.22.09.14v1.2l.13.29h.28l.28-.12.11-.08-.07-.07.36-.22.42-.18.09.07.09-.25,0-.56.17-.29,1.5-1.83.23-.51-.22-.37-.42.12-1.18.9-.61.61-.5.38-.56.16-.53-.35-.13-.26v-.19l.14-.13.62-.07.15-.11,0-.2V235l-.15-.42-.36-.44-.47-.34-.44-.11.11.54-.28.47-.49.16-.5-.37-.44.52-.56.14-.61-.15-.62-.31-1.06-.84-.51-.18-.05.62-.45-.17-.2.12,0,.29.23.38h-1l.22.34.9.75.39.14.18-.31.12-.45.19-.29h.48l.25.32,0,.43-.5.59.13.29.5.58h-.89l-.38.33-.25.56-.52.7-.16-.89.07-.46.31-.46-1-.19.05.3-.05.19-.14.09-.25,0-.22.06v.16l.06.21-.06.18-.36.25-.38.2-.3.27-.16.47.26.89.78,0,1.56-.51-.2.4.16.1.12.06h.33l.27-.05.06-.12V240l.08-.1.5-.11,3.29-.07-.63.53-.84.18-1.74-.13.46.34.18.08-.46.2-.71.17-.7.06-.47-.13-.46-.2-.61,0-1.23.12.24.26.32,0h.39l.43.1v.2l-1.1.22-3.09,1.38-.24-.08-.25-.14-.21-.23-.1-.33,1.6-.36.83-.32.37-.34.06-.36.29-.64.06-.31-.18-.41-.45-.3-.53-.17h-.45l.31-.43.46-.11.42-.2.21-.67.24.1h.2l.13-.13,0-.28,0-.12-.15-.18,0-.11.08-.25h.17l.2.1.14,0,.21,0,.28.11H402l.1-.26.06-.3.16-.17.26-.06.32,0-.75-.31-1,0-1.93.27,0,.13-.68.76-.13.46-.3.16-.34-.08-.25-.23.28-.21L398,237l.19-.34.1-.37-.5-.14v-.22l.29-.24.41-.2-.71-.59.44-.29.83-.09.46,0,.41.32.93,0,.94-.25.49-.35-.26,0-.09-.07-.07-.12-.18-.17.28-.22.3-.09h.31l.33.1.14-.41.28-.21.17-.21-.19-.39,1.41.28.51-.1-.32-.78-.24-.15-.35-.06h-.34l-.25,0-1.44.6-.44.11-.16.07,0,.1-.07.38-.08.14-.89.69-.11.11-.7-.12.11-1.35-.72.37-.65.77-.15.13-1.49.19-.32.11-.28.16-.67.27-.25.17-.47.46,0,.16v.39l.18.08,1.12-.59.37.08.23.21,0,.3-.22.32-.7.29-.78.19-.42.33.41.7-.41.2-.15-.29-.15-.09-.15.09-.14.29h-.19l0-.57-.3-.52-.46-.38-.52-.15-.42.15-.51.34-.27.41.3.32-.25.32-.24,0-.25-.12-.26,0-.24.2-.47.69-.41.33-.48.25-1,.33.11-.22.09-.26v-.23l-.19-.09-.3.09-.33.43-.73.23-1.81,1.36-1.13,1.2-.51.42-1,.47-1.08.71-.56.22-.62.08h-1.36l-.65-.11-.51-.25-.21-.43.11-.22.51-.18.17-.18,0-.23-.37-.79-.27-1.19-.23-.38-.32.37h-.19l-.08-.33-.17-.22-.45-.36-.1-.26.2-1,.27.11.24.17.17.24.11.27.13-.47-.23-.4-.32-.38-.17-.45-.06-.46-.34-1.45-.29.14-.22,0-.22-.05-.27-.13.74-.45.66-.55.33-.38.07-.2-.08-.26-.1-.54.29-1.29.08-.15-.31-.43-.38-.1-.43,0-.49-.07.35-.3,0-.24-.17-.27.16-.59V229l-.15-.37-.41-.45-.41,0-.42.26-.38.46-.3-.34-.23,0-.47.36,0,.13.06.39-.12.08-.38,0-.15.06-.7.42-.38.12-.38-.1-2.51-1.53-1-.78-.4-.83-.63.25-.19.15-.16-.47.36-.87v-.5l-.14-.13-.49-.15-.17-.1-.4-.78.5,0,.41,0,.15-.23-.26-.61.44-.28.26-.56.32-1.15.28-.61.3-.29.46-.1,6.32.4.67-.2-1-.08-1.75-.38-1.89-.19-5.8.22-1.34.53-1.12,1.1.37.11.41-.05.42-.18.38-.28.09.1.34.3,0,.26-.9.31.13.43L363,223l-.25.15-.26.09L362,223l-.21.2-.17.27-.14.14-.41-.12,0-.33.48-1-1.09.33-1.28.94-2.93,2.75-1.51.9-.12.11-.35.08-.82.43-.4.28-.21,0-.43,0-.2.07-.12.18-.09.2-.1.13-.19.07h-.19l-.2,0-.2.15-.06.12-.06.31-.1.17-.7.7-.38.58-.2.18-.26.08-.36,0-.25.22,0,.51.18.92v3.18l.17,1.52-.05.27-.26.67-.07.35.26,3.23.17.36.57.83h-.34l-.35.12-.27.14-.14,0-.28-.08-.14.28-.09.7,0,.64-.06.34-.39.57-.07.28,0,.28.12.28-.61.16-.87.42-.77.49-.33.43,0,.35-.09.31-.15.29-.24.26-.15.1-.08,0-.05.07,0,.61-.09.11-.14,0-.15.15-1.09,1.82-.41.5-.28.2-.3.15-.23.18-.2.69-.28.06-.4-.05-.43.06-.25.17-.74.65-2.76,1.34-1.46.46h-.21l-.55,0-2,.22-1.75-.2-.46.25,0,1.39,0,.16.13.21.22-.21.18.33-.6,1.12-.28.94-.41.59-.49,1.83-.29.67-.43.52-1,.92-.15.23-.29.72-.14.65-.52,1.09-.78,4.31-.62,1.32-1.43,1.64-.18.67.38.59.9.22,1.93-.09.79-.17.67-.31-1.2,1-3.27,0-.6.14-.6.53-2.1,3.18-.52.24-.73,1-.5.54-.46.24-.31.1-.27.25-.43.55-.24.38.07.21.56.41.5.7.13.64v.65l.09.72.09.27.14.24.22.23.36.28.51.3.18.17.1.31-1.39-.83-.21-.26-.35-.23-.7-.08-.5.19.25.53.53.75.45,1.08.08,1.05-.58.61-.08-1.51-.15-.71-1-1.54.35-.45.73-.31.55-.47.05-.68-.29-.8-.48-.67-.57-.29-.74-.05-.28.08-.38.28-2.5,3.2-.5.33-.53.23-1.05,1.14-.52.42-1.07.41-.32.2-.38.32,0,.16.11.2.26,1.1.73,1,.09.78-.65-.73-.72-1.27-.8-1-.93.1-1.14.67-2.61.69-1.17.54,2.51.8,1.13.63.77,1-.53-.45-3.61-1.54-.78-.08-.09.49-.64-.2-.45.26-.41.42-.52.3.24.27.52.06.24.27-.87.2h-2.93v.22l2.66.83.78.56.56.71.2.44-.11.48,0,.55,0,.22-.34.58-.06.24H299l-.2-.6.05-1.2-.09-.62-.24-.5-.37-.48-.53-.3-.63-.24-1.2-.22-1.27.4-1,.87-.56,1.27.69-.36.65-.76.73-.61.94.13-1.9,2.22-.34-.07-.63-.28-.33-.07-.47.06-.39.14-.75.4-.71.23-.29.18-.22.41-.1.47.11.19.29.13.42.31.44.6.18.55-.2.19-.74-.44-1.17-1-.58-.1-.25.78-.37.46-3.91,1.43-.63.37-.61.55-.18.64.6.35,1,.13.9,0,.76-.13h.35l.29.13-1.28.36-.56.08-.77,0-1.64-.21-.76.1-.6.51,1.18.48.58.36.24.45,0,.92-.16.15-.48-.36-.54-1-.39-.37-.66.07-.44.37-1,1.11-.47.23-.59.12-1.51.88-.65.05-1.18-.19-1,.56-1.18.24-.43.32-.2.61.17.58.39.54.45.48h-.2l-.64-.15-.27-.49-.1-.62-.2-.53-.25-.23-.26-.06-.8.07-.28.07-.36.18-.32.24-.13.23-.35.42-.79.32-1.48.35-2.12,1.05-.58.16-.53.22-1.11,1-.55.22-.28.07-.81.37-.21.16-.11.24.06.21.45.55.67,1.07.47.51.57.22.6.13,1.55.73.53.36-.69,0-1.61-.82-.8-.22-.34,0-.43-.14-.37-.22-.77-1.62-.53.1-1.86.72-.52.29-.56.41-1.35.67-1.77,1.28-1.59.72-1.67.38-1.39-.16-.6-.46-.47-.52-.5-.2-.72.49-.25.09-.75-.06-.4.17-.29.21-.6.32-1,.36-1.09.18-1.81.09-.58.12-.57.21.6.34.2.08-.34.11-.34.15-.33.2-.3.24-.24.35-.09.36,0,.31,0,.18-1,.89-1.15.82-1.82.9-1.07.9-.56.25-1.36.33v.2l.72.2.34.36v.44l-.35.51-.28.11H229.4l.15,1-.74.66-1.06.53-.85.54-2.42,2-.69.72.23.34.17.43.2.85,0,.78,0,.22.15.21.14.06.15,0,.17.11.79.6.66.28.15.12.2.37.08.45-.07.44-.21.34-.9-1.3-.38-.31-1-.41L223,339.9l-.86-.14-.86.26-.85.65-.21.12-.5.11-.18.09-.17.19-.23.41-.21.18-1.55.32-.46.28-.24.41.12.31.75.5,1.11,1,.49.19-.75-.16-.55-.21-.48-.34-.54-.56-.33-.16-.32.11-.29.21-.56.21.07.22.32.39.19.51.77.6.06.6-.23.52-.31.38-.25.44-.05.66-.52-.29-.31-.34-.07-.43.14-.54.26-.42.24-.2.08-.21-.2-.39-.94-.64-1.06.09-.85.66-.36,1,.07.35.43.95.21.31.2.42V349l-.06.43.08.29.61.42.08.18,0,.21.07.23.09.21.13.16.08.31-.5.07-1.09-.08.19-.56-.2-.35-.35-.3-.24-.4,0-.27.3-.56.07-.28-.09-.29-.21-.21-.21-.17-.09-.13-.4-.91-1,0-2.25,1,.15.14.28.33.17.13-.7,0-.55.09-.49.18-1.46.89-.49.41-.13.41.34.25,3.53,1.45.55.11-.41.33-.66-.26-.72-.44-.61-.23-.78-.15-.78-.28-.75-.16-.71.2-.39.46,0,.47.35.49.49.49.62.28,1.66.43.44.37-1.78-.14-.44.14-.13.23.09.59-.15.4-.34-.26,0-.33,0-.39-.07-.42-1.11-1.32-.65-.11-.7.49-1.15,1.34.72,0,.61.38,1.06,1,1.06.63.16.18-.22.22h-.46l-.49-.13-.33-.19-1.15-1.14-.7-.36h-.86l-.66.31-.21.49.09,1.31.12.33.54.32.18.59.26.58.06.39.51.2,2.38-.17.74-.14,1.12-.37h1.09v0l-.24.14-.17.32,0,.55.08.13.28.31.41.22,1,0,.48.1-.32.39-.53.16-.61,0-.54-.13-.41-.26-.51-.71-.3-.23-.54,0-3,.63-.5.21-.42.4,3,2.09,1.52,1.39.16.95-.2-.13-.38-.15-.22-.11-.07.11-.13.07-.52-1-.2-.69-.3-.24-.36-.17-.8-.51-.2.15-.12.38-.2.38-.38.31-.36.15-1,.05-.26-.13.31-.27.75-.42L201,363l.06-.29-.12-.25-.21-.28-.83-.6-.79.05-.83.28-.93.07.11-.27.18-.23.24-.18.27-.14-1.22-.42-.55-.37-.23-.5-.28-.1-.64.35-1,.76-.41.48-.17.36.1.33.38.33.52.27,1.15.42.54.31.36-.68.46.27.44.72.34.69-1.27-.21-1.41-.66-1.42-.42-1.31.49-.3.46-.52,1.75-1.09,1.67v.44l.36.54.24.12.51,0,.33,0,.63-.12.33,0,1.61-.64,2.42-.34,3.89-1.46-.25.75-.86.45-1.89.43.35.31.45.12,1,0-.63.43-.81,0-1.54-.39-.86.11-1.47.55-.78.12-.68.19-.33.48,0,.65.23.7.49.1,2.82-.3-.46.27-1.55.33-.51.25-.35.31-.54.86.67.16,2.74-.57,2.1.19.45-.05,1.25-.35-.37.61-.62.34-1.41.45-.58.3-.28.19-.25.23-.33.18-.4,0-.87-.1-.79.09-1.56.41-.75.09h-1.83l-.86.18-.73.43-.21-.22.21-.2h-2l-1.9.2-.49.29-.19.68v2.63l.15.58,0,.4-.11.34v.23l.16.37.22.34.22.15.22-.11.69-.53.39-.17,2.78-.58.43-.32.11-.29.79-.91.18-.13.54-.27,0-.17.09-.2.13-.2.12-.13.27-.2.32-.19.34,0,.29.23-.06.22-.26.31-1.6,1.37.08.19.46.16.56.11.4,0,1-.23,1-.35-.49.67-.76.25-1.77.3-.82.37-.56.45-.32.64-.1.94-.46-.21-.26.23-.1.46v.51l2.11-.31.93-.39.39-.91.32.21v.25l-.12.22,0,.15.25.26H192l.06-.12.91-.7.12-.06,0-.29-.09-.19-.07-.21.11-.33.43-.38.68-.27,1.29-.33,1.77-.76.64-.06v.18l-.73.31-1.33.77-.86.16-.61.25-.46.59-.82,1.37-1,1-1.12.89-.3.16-.83.27-.17.18.13.28.87.82,1.66.84,2,.25,4-.07,2,.38h.5l.5-.06h.5l1.87.62.33.05.12.1.12.17.17.12.2-.09.18-.11.24-.09.48-.1.64,0,1.2.32.58,0,.43-.11.89-.39.47-.11,1,0,.44-.09.38-.36.17-.43.06-.39.12-.41.34-.46.11-.22,0-.48.17-.21.24-.06,3.35.26.43.08,1.38.63.58.13,1.19.09.44.27v.59l.73.84,1.5,1.38-.28.36-.35.18-.4.11-.41.17.35.21.69.28.29.19.41.55.26.26.33.11.26.28.29.2.34.1.17-.06.45-.27.19-.07.23,0,.41.15.3.08.35,0,.35-.08.16-.31.25-.28h.56l.89.1.37-.1.5.11.51.18.43.09.07-.16-.1-.34,0-.34.41-.16,2.88-.35.82.15.48.37,1.57,2,.61,1.21.34.4.59,0,.57-.42.29-.68-.23-.74h.74l.54.69.21.95-.27.78-1.54.89-.18.2-.15-.21v-.13l-.05-.08-.31-.07h-.32l-.9.19.06.34.13.25.21.17.77.18.18.27.06.28.1.12.66.22,1.06.91.8.09-.34-.53-.89-.79-.18-.6.25-.5.59.09,1.17.51,2.56,0,.84.24.67.51-.52.16-.84-.11-.31-.33-.35-.09H242l-.41.1-.25.12-.17.15-.37.5,5,.36,1.57-.36-.11-.09-.19-.21-.1-.09.38-.31-.18-.22-.37-.26-.24-.41,1.47,0,.74.12.58.24-.4.15-.41.05-.35.1-.24.3h1l3-.41.86-.22h.4l.17.33,0,.29.74,1.84.34.35.54.06,1,0,.81.19,1,.35,1,.18.79-.32.1-.36-.08-.37v-.25l.38,0,.2.15.2.28.31.27.52.12h.88l.18-.07.08-.14.06-.14.36-.2,0-.66.26-.21.42.08.08.34-.11.59.38.27.38.05,1-.11.35-.07.35-.18.6-.46.4-.18.52,0,1,.12.19.07.61.33.54-.67.9,0,1,.21.79-.18-.16-.13-.29-.35-.16-.14,1.54-.64.37-.25.61-.19.82.14.76.23.42,0,1-.57,1.05-.28.91-.44.59-1-2.36-.09-.45-.13.47-.09.84-.26.51-.05.49.06,1,.28.5.06.24-.1.68-.41.83-.21.13-.3-.07-.78.4-1.53,1-1,4-2,.56-.45.5-.53.64-.54.73-.33,1.54-.44.61-.29.66-.44.53-.56.21-.62.06-.27.26-.54.1-.88.1-.33.47-.68,1.7-1.73,2.17-1.11,2.5-.6,6.05-.44.07-.16v-.2l.16-.2.3-.17.12,0,.59,0,.62,0,.44-.15.26-.38.1-1.6-.12-.46-.3-.36-.31.4-.33.14-.37.06-.4.19-.35.35-.45.67-.4.27-1.32.37-.89.54-1.06.2-.55.2.28-.5,1.09-.51.37-.74.29-.11.33-.05.26-.07.22-.18.56-.64.58-.21,1.43-.21.52-.27,0-.4-.59-.3-.77-.28-.53-.32-.4.33-.37,0-.39-.18-.44-.11-.27,0-.12-.06,0-.15v-.28l.05-.26h.13l.2,0,.24-.07.6-.36.37-.16.33-.07.22-.16.7-1.06-.67-.07-.43-.28v-.31l.59-.14,1,0,.37-.11.49-.33-.26-.56-.1-.3,0-.32.5.27.4,0,.35-.17.35-.35-.21-.71.61-.46.81-.39.41-.54-.07-.37-.11-.31v-.33l.27-.39,1.09-.91.05-.67-.51-.34-.4-.37.35-.74.39-.61.7-2.08,1.58-2.44,3.25-2.38,2-2.64,0-.35-.74-.4-7.33-2,7.55,1.35,1,0,.59-.3.31-.59.24-1.74,0-.95-.28-.71-.84-.11.28-.35.4-.16.35-.22.15-.55,0-.51-.34-1.4V340l-.16-1-.64-.58.85-.36.24-.06.34-.12.09-.28v-.33l.07-.27.84-.73.39-.43.17-.54v-1.67l.11-.34,1.59-2.11.1-.29-.19-.23-.59-.27-.75-.18-2.46,0,.77-.32,2.44.12.46.11.47.2.45.1.42-.21.58.16.72-.3,1.78-1.38.36-.21.76-.2-.23-.26-.75-.39-.52-.41-.52-.6-.4-.67-.16-.63-.25-.58-.58-.45-.67-.42-.5-.45,0-.32.65.11.83.34.87.57.77.21.33.19.55.5.54.6.62,1,.29.63.6,0,.32-.09.78-.41.82-.18.33-.22.31-.27.36-.24.45-.13,1.08-.18,2.18-1.09.25-.45-.34-3,.28.33.07.32v.36l.05.4.53,1,.07.35.39.56.88-.1,5.65-3,3.05-1,.6-.39.24-.66-1.09-.81-.91-1.1-.72-1.19-.54-.58-.63-.24-.77-.1-1.63-.56-1.58-1.05-.65-.66,6.83,2.51,1.6,1.16,1.91,2.11.42.25.34.05,2.44-.28.31-.12.36-.35.08-.15-.07-.17-.07-.43v-.72l.13-.86.27-.73.49-.31.82-.13.77-.23.74-.1.79.28.24.2.35.42.2.17.51.14.93-.1.37.06.8.39.22.22-.43.1-.45,0-4.4,1.11-.79.09-.36.13-.29.22-.12.31.26.11,1.18-.14,2.57-.67,1.7-.13.82-.31,2.38-.25.8-.28.52,0-.56.55,0,.39,1.14.86.62.59.35.21.67-.16.68.59.39.17h1.92l.68.1.1-.07-.92-1-.32-.79,0-.8.42-.79-.38-.26-.08-.33.2-.3.45-.12.38.14,0,.35-.06.44.16.38.34.38,0,.22-.09.25v.45l.12.38.37.66.13.38.24-.2.26-.1.26.05.24.25v-.2l.19-.62.53.09.72-.69.36.4.37-.72.23-.84.09-.84-.1-.79-.08-.15-.24-.3-.09-.17.05-.15.1-.2.08-.24,0-.24-.33-.34-.42-.24-.34-.3-.12-.51-.34.15-.84.66-.11-.39-.33-.26-.45-.12-.43,0-.38.14-.25.3-.2.35-.26.22-.4.09-.11-.18.09-.81-.05-.49-.17-.25-.77-.35-.27.74-.14.75-.13.1-.26-.24-.28-.42-.13-.44-.47-.07h-1l-1.1.2-.6.58-.64-.16-.82-.1-.34-.22.78-.52.87-.22,1.93-.09.83-.27-1.79-.37-.44-.23-.24-.41.14-.19.35.05.37.33.05-.47-.84-1.73-.53-1.82-.28-.59-1.36.74-1.37.52-3.08.55-4-.77,3.84.06,2-.24,1.77-.47.34-.18.86-.61.43-.05h1l.2-.19.05-1.54.12-.74.21-.71-3.5.2-4-.88,6,.3.54-.06.46-.15.21-.2.15-.24.69-.79.67-1.22.41-.57,2.26-1.2.79-.74,1-.33,3.95-.72,1.41-.81.25-.2.13-.25.1-.34.17-.29,1.21-.46.83-.09.32-.08L383,292l.27-.2.11-.21.07-.4.19-.15.26-.1.28-.26.21-.36,0-.16,0-.16v-.33l-.14-.57.06-.3.92-.35.55-.52.44-.63.33-1,2.27-3.64-.16-.06-.12-.07-.13-.05h-.21v-.22l1.29-.5.69-1.07.46-1.29.58-1.12,1.54-1.4.37-.22.3-.09.63-.41.37-.1.45.06.33.16.61.6.22-.19.19-.23-.2-.27-.5-.46-.12-.26.05-.48.22-.25.31-.16.33-.22.13-.17.28-.52.42,0,.2,0,.17-.09.91-1.11.63-.45,1.31-.63.57-.42.57-.77.55-.55.06-.14-1.08-.93-.52-.33-.36-.44-.13-.85.09-.28.21.05.2.26.1.35,0,.5.17.28.31.18,1.29.42.35-.15.06-.52,0-.89.17-.6.4-.67.85-1.05,5.67-4.54.51-.57,2.08-3,.17-.71-.55.16-.74-.06-.65-.3-.28-.51-.16-.19-.62-1.61,0-.31h-.55l-.69.37-1,.73-.32.12-2,.33-.3,0,0-.07.62-.3,1.76-.57.81-.42.83-.66.37-.57-.07-.61-1.61-2.08-.41-.27.08.46.27.59.15.14-.15.59-.32.08-.31-.16-.11-.11.1-.18-.13-.39-.35-.36-.55-.09.19-.49-.05-.42-.32-.89,0-.55.14-.36.7-.7.55-.79.46-.84.56-.73.84-.44-.2.41.4.09.61-.47.29.08-.06.18-.49.63-.15.3.44-.1.69-.43.91-.18.2-.23.11-.29.14-.28.29-.28.58-.41.22-.2.46-.69.36-.73-1.21.7ZM219,366l-.53,0-.37.15-.1.26.57.74.13.35-.08.37-.34.47-.19-.14-.35-.44-.5-.37-.64,0,.09.12.05.1.08.09.16.09-.34.63h-.56l-1.3-.72-.84-.17-.49.36-.47.49-.8.22.71-1.14,0-.46-.74-.2-.31.07-.79.23h-.2l-.34-.12-.41.08-.75.34.1-.45.28-.18.84-.17.5-.23.26-.22.43-.76.52.58.21.47.32-.07.57-.38,1.34-.06.67.09.55.19.44-.72.85-.12,1.75.44Zm8.48-15.4-.31.28,0,.43.06.71-.24,1-.4,1L226,355l-.62.78-.28.19-.27.11-.19.18-.13.7-.13.19-.14.14-.07.1,0,.49,0,.51-.05.49-.62,1.16-.85,2.43-.37.52-.6.22-.25.48-.18.48-.38.22-.5-.22,0-.51.25-.6.39-.47-1-.17-2.42-.1-.89-.44-.27-.22-.87-.54-.26,0-.42.18-.57,0-.55-.17-.36-.29,1.18-.18.27-.11.44-.26.3-.05.49.13.47.29.73.68.6.31.84.15h2.24l.53-.16.37-.35.13-.65-.15-.95-.41-1-.58-.84-.65-.66-.44-.26-.57-.25-1-.29h-.74l-.7.13H216l-.66-.34.54-.21.7-.05L218,356l-.45-.85.29-.18.67.29,1.37,1,.94.43,1,.14,1.26-.53.44-.06.36-.15.15-.42,0-.41-.08-.43-.22-.34-.39-.14-.48-.33-.5-.75-.38-.87-.15-.65.45.35.58,1,.48.21.23.19,1.06,1.23.61-.92.66-1.32.24-1.26-.7-.73.51-.29.84-.13.88,0,.59.21Zm24.62,9.85-.23.33-.42.42-.17-.07-.09-1.65-.25-.86-.38-.81-.5-.62.36-.15.21-.28.08-.36,0-.41-.17-.33-.52-.49-.11-.28-.22-.82-.53-.13-.65.27-1.24.81-.28.09-.48.08-2.86-.11-.65-.31-.54-.5-.56-.68-1.07-2.09-.24-.32-.52-.41,0-.89.26-1.51-.06-.13-.26-.35-.06-.13,0-.16.12-.28.16-.81v-.32l-.59-.89-.19-.67L239,341h.2l.15.35.46.49.19.34,0,.42-.23,1.17.12.8.29.69.77,1.33.32-1.22.28-.56.61-.43.41-.08-.08.28-.71,1,0,1.09,0,.32-.21.26-.31.29-.18.34.2.44.43.56.3.57.2.63.43,2.19.24.67.4.59.71.42.85,0,2.57-.58,1.69-.64,1.52-.26.15.06-.54.73.05.26,1.57,1.67.22.71-.39.81-.29.66.11.71.5,1.33.08.4v.33Zm34.06-29.63h-1l-.91-.23-.8-.58-.36-.67-.19-.92.16-.74.7-.15-.26-.67,0-1.67-.4-1.71-.07-1,.23-.95.65-.62,0,.65-.33,1.2-.05.59.08.3.16.4.22.35.26.15.35-.09.17-.23.12-.3,1.14-2,.33-1.17.4-.19.24.26-.25.69,0,.69-.23.71-.35.66-.39.54-.81.6-.19.22,0,.38,0,.54,0,.48-.24.22-.26.15.07.34.21.37.18.23.15.32-.06.41-.19.76.31.6.73.39,1.56.62Zm8.29-4.17-.05.23-.18.24-1.27.5-.15.08-.71-.24L292,327l.21-.66.16-.69-.06-.35-.27-.67-.07-.28L292,324l.55-.93-.19-.42,0-.9-.06-.48-.23-.34-.65-.61-.14-.36-.18-1.6v-1.9l-.6-1.22.37-.24.54,0,.48-.11.21-.52v-.53l.11-.27.26-.11h.52l.54.12.16.29-.15.34-.45.28-.82,1.63-.32,1.12,0,.26.45.65v.29l-.1.33-.06.43.08.31.18.23.21.2.13.16.78,2.3.13.2.09.25-.06.63.45.79.08.51Zm12-13.34-.43.6-.45.46-.68.48-.57.25-.32.36.06.82.16.77,0,2.33-.12.9-.34.5-1.15.91-.4.54-.66,1.23-.61.32.27-.87,1.08-1.69.14-.53-.09-.28-.19-.29-.12-.28.09-.25.17-.36-.16-.27-.34-.18-.38-.09.09-.4.31-.15.41-.13.39-.33v-.91l0-.13.19-.56.14-.85-.05-.8-.74-2.32-.11-.77-.1-2.64.06-.47.2-.38.36-.2.2.18,0,.38-.2.44v-.2l-.14,2.71.19,1.46.83.79.14.7.1.26.26,0,.38-.15.68-.4.44-.46.54-1.05.41-.5.2.77ZM332,299l-.48.58-.71.28-1.94.34-.45.5.28.31.61.47.63.62.28.7.21.7-2-.8-1.34-.32-.34-.18L326,302l-6.14.88-.76-.3-.8-.49-1-.25h-1l-.83.24-.12-.54.61-.16,1.51.1,2.81.6.66,0,.76-.19.61-.33.19-.45-.27-.33-1.54-1.29.4,0,.57.27,1,.68.2.2.23.41.19.19.37.24.22.06,2.73-.16.69.1,1.27.41.6.27.53.32-.44-.49-.59-.4-.52-.43-.23-.6.25-.65.44-.33.2-.31-.49-.61-.29-.11-.33,0-.28-.15-.12-.38-.05-.33-.27-.56-.16-1-.26-.62-.67-1.2.51.3.52.55.41.65.4,1.36.55.41.65.3.57.42.15.37,0,.28.06.22.41.13.35-.07.47-.23.41-.3.17-.3-.13-.33-.54-.33-.13-.34.09-.47.21.09.32.48.63.55.25.47Zm-135.86,59.8.32.36.24.41.57.21.64.15.48.22.51.36.4.08,1-.13-1.1-2-.41-1-.27-1-.08-.11-.08-.06,0-.09V356l-1.77,2-.19.28,0,.14-.29.1Zm-7.91,15.78.82-.07.16-.05.24.05,3.17-.86.09-.07-.15-.08h-.17l-1.44.07-1.09.38-.76,0-.36.27-.67.07-.09.09.09.06v.06Zm23,39.72-.15,0-.12.12,0,.15.05.18-.05.14.24-.33,0-.11,0-.06Zm-25.73-32.11-.26-.09-.26,0-.17.14v.18l.45.41.14.09.13-.19.1-.29.12-.17-.06,0Zm8.2-8.41h.73l1.19-.35.12-.09,0-.17-.14-.13-1.77-.12-.34.13-.28.23v.17l.21.08-.13.11Zm205.27-143-.4-.27-.35-.34-.44-.32-.17.33-.06.36.06.37.17.33.09-.11.31-.29.15.33,0,.3-.19.23-.34.14,0,.12v.1l0,.1-.12.1.38.17.42,0,.43-.15.37-.2.09-.13.08-.21.13-.19.2-.09.71-.2.18-.14.34-.36.18-.08.58,0,.12,0,.18-.33.12-.76.08-.31.13-.16.43-.4.16-.07.14-.09-.06-.19-.18-.3.29-.76.1-.4v-.42l-.13-.43-.15.18-.32.83-.27.33-.27.23-.66.44h1l-.46.31-.92.22-.23.29-.14-.48.08-.53,0-.44-.42-.17-.25.12-.15.28-.11.4-.32-.07-.08-.24,0-.23-.16,0-.16.25-.37,1.12-.07.42.08.49.24.38.32.3.36.23v.18ZM245.66,402.72l-.34.25-.42.12-.46,0,.24.37.32.28.19.26-.13.3.27-.27.61-.48.36-.61-.46-.65Zm-3.82-57.17h0ZM415.87,238l-.07-.22-.49-.05-.38.12-.33.24-.38.2-.52,0,.18.33.3.19.36,0,.36-.16,0,.54-.47.49-.65.18-.5-.39-1.51,1.3-.26.13-.72-.05-.31,0-.09,0-.32.24-.14.12h0l1.49.06.45-.06.29-.15.73-.49.4-.16.52,0,.54,0,.52,0,.43-.22.2-.34.18-.87.23-.39-.1-.38ZM235.8,407.67v-.2l-.23-.2-.24.13-.08.22.36.09Zm-1,3.71.35.09.33,0,.32-.14.08-.2.18-.74.14-.28-.23-.09-.26-.16-.22-.21-.09-.23-.1-.12-.22.05-.39.16-.38,0-1.57.39h-.33v-.2l.23-.1.13-.12.1-.16.11-.2-1.14-.36-.75-.13-.8-.42-.3-.09-.64.23-1,.91-.74.06L229,408l.09-.32-.3-.57.56-.19,1.65,0-.2.4,2.65.18.72-.18v-.18l-.59-.22.57-.38-.35-.36-.67-.27-.36-.09-.17-.39-.41-.28-.49-.23-.41-.3-2.61-2.54-.52-.4-.56-.33-1.37-.48-.33.05-.41.29-.38.15-.45-.05-.78-.2-.89,0-.65.15-.42.43-.15.82-.07.16-.11.15-.05.16.12.22.14.14.09.12,0,.15,0,.18-.12.22-.22.22-.13.26.18.31,1,1,.38.63.16.66-.07.41-.17.31-.49.58-.38.24h-.86l-.36.15-.14.63.22.78.12.7-.51.4-.39,0-.35-.13-.38-.08-.48.13-.69.32-.31.19-.3.29-.22.41v.33l.1.34,0,.44-.14.36-.2.31v.27l.51.24-1,.35-.59.32-.57.06-.3.19-.34.46-.36.71-.19.75.17.56.6.14,1-.05,1-.17.53-.19.42-.42.52-.38H219v.71l.92-.68.33-.38.35-.56-1.78.47-.91.12-.53-.39.86-.21,1.5-.82.46.23.19-.71v-.11l.23-.09.49-.09.6-.39.24.22.2.42.28.35.36,0,1.06-.12.46.17.38.25.51.16h.52l.4-.22.53-.48,1.83-1.17.74-.24,1.82-.22h2.18l-.34-.45,1,.3.32-.15-.18-.71.15-.21.65,0,.22.13.22.37.16.11h.23l.3,0,.22-.09,0-.18-.37-.29-1.33-.61v-.2Zm-22.2,4.86-.7.32-.35.41.24.35.66-.15.72-.35.38-.25-.28-.39Zm7.12-12.17.33-.23.31-.49-.38-.22-.39-.07-.43,0-.34.2-.12.39.18.38.4.11Zm.34,12.15.21-.11V416h.1l.11-.12-.13-.26-.28,0-.39-.08-.16.18.11.13.16.1v.26Zm4.12-21.84.1-.09,0-.16-.09-.15-.13.08-.36,0-.09.08.31,0ZM443.76,94.83l-.76-.74.2.7.66.59.84.3.68-.19.2.22.1.16v.18l-.1.26.71-.14h.25l.23.15.1.26.06.73.15.31h.32l.43-.21.38-.1.17.32,0,.37.1.35.22.22.41,0,.28-.22.57-1-.24-.16-.56-.64,0-.12,0-.14v-.11l-.1,0-.17,0-.16-.07-.15-.09-.13-.1-.37-.51V95l.17-.32.1-.44.15-.23.27-.31.15-.25-.26-.12-.28-.05-.75-.25-.77-.38-.42-.35-.06-.34.58-.23-.88-.53L446,91l-.07-.37-.19-.27-.26-.18-.29-.09-.76.09-.33.45.11.59.58.48-.33.3-.38.11h-.87l.34.49.58.24.41.25-.25.51-.1.32.06.39v.37l-.27.24Zm12.63,10.72.24,0,.19.12.05.11v.1l0,.09,0,.08-.09.13,0,.11.06.1.37.14.24,0,.12,0h.37l.19,0,.18-.07-.14-.28-.18-.2-.25-.1-.33,0-.32-.77-.19-.23-.8.2.15.31Zm-26,125.73,1.11-1,.5-.72-.06-.15-.26-.1-.17,0-.22,0-.16.08-.28.51-.15.19-.9.71-.11.14-.06.16.1.15.19.06ZM536.7,136.89l-.46-.29-.44-.16-.36-.05h-.9l-.38-.1-.56-.41-.37-.09h-1l-.49-.05-.48-.15-.33-.21-.54-.45-.36-.14v-.2l.4-.31L530,134l-.67-.16-7.21-.29L521,133.4l.35.46.14.32-.1.29-.39.33-.54.19-1.3.11-.45.2-.69.84-.39.33-.53.13-.59,0-2.92.67-.21.21-.08.34-.18.26-.44.4-.33.52L512,140.1l-.46.51-1.22.53-.18.18-.09.28-.49.72v.75l-.12.26-.31.32-.89.61L506,145.37l-.53.37-.71.35-2.62.15-.87.18-.33,0-.2.1v.21l0,.2-.11.09-.18.06-.13.09-.13.05-.18-.1-.31-.43-.08-.06h-1.91l-.38-.16-.24-.21-.29-.14-.49.1.21.31.13.4-.07.36-.38.15-.42-.05-.38-.14-1.35-.76-.18-.19.32-.08h1.72l-1.1-.48-2.73-.29-1.6-.81-2-.23-1.77-.54-1.85-.24-1.18-.46-5.85-3.38-.35.2-.2-.09-.13-.19-.13-.12h-.88l-.36-.12-.71-.55-.33-.13-.85-.15-1.76-.69-.8-.15-.72-.33-1-1.49-.57-.4-.4.11.16.42.65.87.4,1.41-.43,0-.47.12h-.37l-.15-.26,0-.5,0-.36-.16-.26-.4-.2-.56-.08-.19.24-.15.3-.42.15-.3-.16-.25-.32-.29-.17-.45.25-.29-.42-.17-.43-.24-.35-.52-.21-.1.06-.12.14-.15.15-.23.07-.52,0-.15-.06-.15-.14,0-.14-.14-.66.05-.1.11-.16.08-.18-.06-.16-.12-.06-.3,0-.15-.09H462l-.14,0-.18,0-.2-.22-.05-.21,0-.22.09-.2.11-.17-.15-.12-.26-.32-.18-.18,1.37-.21.76,0,.58.28.4.38.49.36,1,.57-.92.27-.3.13.49.37.44.05.43-.05.46,0,.35.15,1,.65-.11-.5-.35-.37-.84-.63-.25-.35-.46-.87-.29-.39-.4-.34-.49-.31-.54-.27-.48-.17-1.18-.15-.28-.19.25-.46.23,0,.22.17.15.06v-.38l-.11-.25-.41-.26-.09-.21-.12-.42-.54-.92-.13-.46-.11-1.17-.29-1.15-.27-.53-.35-.28-1-.37.4-.33,0-.51-.22-.64-.14-.73h.22l.14.32.16.28.22.24.28.15-.13-.38,0-.85-.09-.36-.26-.11-.39,0-.29-.1,0-.24.49-.67.43-.77.09-.73-.52-.55-.19.24-.33.31-.32.16-.14-.2.12-.3.24-.32.18-.32-.05-.29v-.16l.09-.94-.17-1.39-.12-.39-.13-.23-.46-.48-.13-.32,0-.75-.11-.32-.67-.45-1.2.21-.64-.27-.38.39.23.92-.47.3,0,.33H455l-.35-.18-.32-.26-.08-.24.11-.21,0-.21L454,113l.44-.62.46-.51.37-.24.75-.25.38-.2.57-.86.14-.14.82.09.3-.1.17-.39-.07-.48-.3,0-.39.18-.33,0-.39-.34-.37-.14-.41,0-.54.15-.72.48-.43.17-.36-.14-.32-.2-.41-.06-.37.1-.2.27.18,0,.42.15-1.18.75-.42-.08-.2-.85.09-.3.19-.28.1-.31-.18-.33-.32-.08-.85.1-.33-.12-.17-.33.09-.26.29,0,.38.25.31.12.08-.38-.08-.75-.22-.76-.53-.14h-.66l-.61-.4.64-.58.05-.75-.34-.74-.53-.55-.77.7-.29,0-.61-.47-.24-.11-.1-.09-.07-.09-.12-.23-.18-.26-.12-.24-.19-.15-1,.17-.72-.1H444l-.24.41.08,1.13.14.48.26.39.49.36,1.08.33.53.24.53.6.09.08.12.25.29.1.34.05.24.1.14.66-.37.71-.22.78.67.88L448,110l0,.31.15.3.19.28.15-.14.47-.26.14.72-.49.34-1.47.34.18.06.17.09.21.06H448l-.18.29-.31.13-.37.07-.35.11.4.18.46,0h.95l-.43.49h-.64l-.7-.11-.62.19.37.27.15.3.1.31.18.31.3.27.74.43.35.29.28.34.21.34.69,1.81.13.23.14.36,0,1.55.09.42.51.89.06.37.28.78.11.93.18.43.31.31.46.1-.54.28-.52-.07-.39-.35-.15-.58,0-.65-.09-.31-.24-.14-.41.07-.16.15-.09.19-.23.19-1.13.44-1.34.28-1.3,0-1.07-.49-.45-.44-.44-.55-.35-.63-.13-.67.37-2,0-.67-.08-.43-.15-.35-.21-.28-1-1-.24-.12-.38-.09-.63-.43-.3-.09-.26,0-1,.36-.14,0-.16-.11-.18-.07-.68.39-.5.13-.33.18-.36.12-.44-.1-.38-.5.33-1.34-.35-.67-.62-.21-.93-.08-.68.14.11.49.49.71-.38.21-.74,0-.67.14,0-.76-.22-.67-.64-1.38h-.2l-.8,3.19-.28.33-.2,0-.16-.21-.16-.37-.14-.56.16-.26.28-.19.3-.35.09-.89-.64-.33H428l-1.36-.25-.46.07-.37.16-.31.22-.27.28-.25.33-.2-.21-.05.3,0,.41,0,.35-.24.15-.36-.16-.14-.4,0-1.25V113l-.13-.11-.46-.23-.16-.24.29-.22.42-.23.26-.21-.51-.11-1,.13-.24,0v-.2l.48-.43.46-.26,1-.42h.42l.42.8.56.11-.14.25,0,.22.12.18.24.15.77-.34.42.12.37.27.64.15-1.75-4.4-.45-.73-.6-.5,1.22.38.48,0,.72-.21,1.35-.64.14-.16-.31-.2h-.35l-1.25.4-.8,0-.41-.09-.29-.16-.38-.32-.13-.08V105l-.08-.4-.33-.51v-.39l.18-.2.61-.31.21-.31-.23-.21-.23-.17-.25-.13-.29-.07v-.22l.67,0,.06-.49-.53-1.29.76.24.47.58.59,1.39.12-.47.07-.52-.06-.5-.47-.78-.4-1.21-.08-.41.5-.07,2.41.11.89-.12-.7-.18-.82-.09-.65-.22-.23-.53.06-.32.09,0,.11,0,.16-.09v0l.07.06.09,0,.11-.05.08-.13-.07-.06-.09,0,0-.08.18-.4,0-.16-.76-.26-1.21-.68-.95-.86-1.63-2.06-.52-.47-.43-.28-.31-.35-.14-.69.08-.32.16-.25,0-.27-.28-.38-.32-.15h-.74l-.36,0-.55-.24-1.31-.79-.36-.37,0-.53,0-.75-.11-.72-.48-.41.66-.53.5-.58.13-.58-.48-.51-.64-.18-1.94-.21-.53.08-.22.32-.19.38-.25.25-.45-.06-.21-.23-.08-.36,0-.39.15-.29.1-.5-.13-1.58.13-.65.32.31.23.32.15.36.1.41v.53l-.1.24.06.06h.47l.13-.1.16-.41.2-.09.18.06.3.27.21,0,.41-.09.76-.26.44,0,0,.47.84.2-.21.55.66.36.56.48.59.31.81-.17-.7-1.09-.07-.27.19-.7,0-.36-.3-.31-1.72-.87.31-.07.33-.13.25-.21.11-.3-.13-.25-.3-.11-.75-.15.42-.18.16,0-1.11-.49-.49-.34.31-.15.53,0,1.31.18.45.2.38-1-.26-.69-1.41-1.22-1.53-1-.14-.36,1.17-.13-.17-.35-.69-1-.25-.22-.07-.05-.11-.25-.12-.1h-.12l-.07.07,0,.08,0,0-.6-.12-.59-.06-.66-.41-1.08-2-.48-.65.28.23.92.59.82.7.18.09.43-.3-.89-.9.28-.41v-.18l-.66,0-.64-.06-.5-.3-.22-.69.18-.69.4-.59.25-.6-.23-.72-.91.61-.79.71-.16.28v.14l0,.1-.33.16v-.09l-.3-.09-.39,0-.31,0,.07.11.15.29L410,66.84l-.7,0-.41.34-.2-.2.28.46.72.31.84.17.65.06.24.12.1.29-.07.28-.27.12-.23-.09-.19-.18-.25-.15-.42,0,0,.13.1.32.05.13L410,69l-.31-.1-.58-.26L409,69l-.2.47-.2.32-.08-.08-.07-.79-.1-.36-.14-.25-1.11-.94-.18-.37.08-.37.21-.37.05-.4-.34-.46-.3.18-.32.06-.32-.06-.28-.18-.63.22-.45-.3.09-.41,1-.11-.56-.7-.27-.18.3-.19.71-.33.34.41h.31l.24-.15.15,0,.12.3,0,.32.1.27.33.11,1.21-.32-.22-.73-.57-.61-.72-.4-.7-.16-1.69.16-.92-.12-.41-.54-.18-.71-.46-.47L401.65,60l-.5-.49-.26-.35L401,59l-.84,0-.45,0-.52.23-.49.06-.21.16,0,.17.06.43,0,.18-.6,1,0,.28.06.19-.14.12-.61,0-1-.71,0-.24.28-.26.65-.4.16-.27.11-.31.17-.26.38-.16-.38-.14-.2,0-.23,0-.25-.07-.11-.15-.09-.21-.16-.19-.07-.16,0-.2-.05-.15-.29-.07-.22.06-.12.14-.07.13-.1.07h-.89l-.41-.13-.31-.65-.34-.15-.4,0-.34.3-.33-.44-.4-.3h-.38l-.29.51,0,.46.29.34.38.29.31.33-.06.14-.34.48-.54-.61-.56-.15-1.42.14-.65-.1-.56-.27-.5-.39-.4-.44-.27-.38-.3-.52-.13-.55.19-.47.29-.1h1.22l1.2-.42-.44-.45-.09-.24.15-.3-.33,0-.89.37.18-.47.05-.26,0-.26-.15-.37-.18-.2h-.25l-.32.26v.19l.14.28.07.34-.21.39-.68.35-.73.1-.54.2-.17.65.41,1.41.07.83-.38.36-.41.13-.16.3-.09.34-.23.27h-.23l-1-.23-.33,0-.19,0-.08-.17,0-1.2.1-.3.18-.25.62-.63.09-.33-3.9-1.89-1.23-1-.11-1,.61.4,1.42,1.4-.27-1.23-1-1L378,51.07l-.95-.9L376.68,49l-.3-1.71L376,45.87l-.76-.31.44.62.18.84-.08.87-.32.68-.29.2-.11-.21V46.88l0-.38-.16-.34-.16.29-.24.13h-.3l-.32-.18.15-.2.1-.2.15-.43-.33,0-.23.18-.14.27-.08.33-.93-.57-.29-.26.27-.12.19-.18.11-.23,0-.29.48.24.22-.18.1-.64.21-.74.23-.05.58.17-.06.14-.08.34-.06.14.42.14.21.35.11.34.15.16.47,0L376,45l.12-.24.07-.39-.06-1.57.23-.59.84-.44-.45-.41-.34.07-.29.29-.33.23-.52.08L372,41.78l-.89.49-.91.17-.38.32-.74-.36-1.7-.07-.67-.29-.48-.27-.13.29,0,.46.05.24-.3.54-.2.22-.3.24L367.85,45l1.18.85,6,6.5.53.23.38.3.9,1.91.55.63,1.76,1.47.38.49.93,1.83.4,1.47-.11,1.5-.56,1.37-.94,1.09-.53-.23-.57-.1-.42.16-.07.57.22.39,1.16,1,.69.76.41.29.5.13.54-.11.84-.4.44.11-.35.35-1,.63-.24.24.17.3.91.88.32.22.27-.76.32-.67.53-.46.9-.11-.17.32-.25.31-.58.55.19,0,.41,0h.2l-1,.93-.15.49.35.79,2.51,2.87.24.19.26,0,.1-.25.11-2.17h-.06l-.08-.09-.08-.15v-.17l.28-.25.36-.14.2-.19-.25-.42.56-.37.33-.14h.22l.35.43.19.11.28-.14.24-.08.33-.07.19-.14-.28-.57.16-.11.29,0,.75.4H391l.48-.25.17-.52-.23-.47-.37-.55-.12-.54.52-.44.47,1.38.33.43V67.76l.11-.15.32,0,.14.11,0,.22v.35l.32.08,1.07-.27-.47.67-.19.61-.12.2-.37.2-.19-.07-.15-.14h-.29l-.5.4-.13.55v.58l-.17.5-.8-1-.09.38.05,1-.06.21-.42-.12-.32-.29-.27-.33-.29-.26,0,.13-.16.29-.57-.23-.38.38-.2.68-.07.66-.22.49-1,1.06-.21.47.18.54L400,90.16l1.06,1.72,3.79,4.21.93,2.82.71,1,1.41,0,1.36-.47.58-.4.24-.61-.32-.64-.6-.49-.28-.36.6-.22-.26-.37h-.42l-.44,0L408,96.2l-1.6-2-.23-.18-.3-.17-.25-.21-.26-.56-.33-.19-.37-.14-.28-.16-.22-.31-.37-.65-.21-.25-.22-.55-.13-.76-.26-.69-.6-.3-.2-.31-1.51-1.71.12-.47,1.12-.49.17-.63-.16-.15-.28-.2-.22-.29.06-.38.2,0,.33.18.3.26.18.19.13.74-.28.45-1.08.81.92.54.35.35.34.87.84.71.19.45,0,1.13.19.54.46.23L405,92l.51.32.43.37.19.27.28.18,1.39,0,.54.09.5.37.33.42.26.43.7.84.19.11.32,0,.28.09.39.4.23.11h.29l.25,0,.17-.15.07-.29.17-.06,1.05-.23-.53-.64-.31-.26h-.27l-.24.31-.14.14-.22.06-.27-.12v-.28l.17-.42-.3-.37-.29-.17-.38,0h-.53l-.39-.12v-.64l-.31-.24,1.28-.82h.45l-.13.81.61-.59.33-.18.46,0-.27.57-.1.31,0,.32,0,.41.09.1h.19l.32.09.26,0,.25-.06.19.08.08.46.1.26h.24l.33-.05.33.1-.15.11-.45.49.84-.34.71-.8.39-1-.14-.9,1.11.25.29.16.34.47-.09.26-.36,0-.5-.19-.12.42,0,.26-.05.21-.18.32-.69.72-.45.94-.15.74-.22,0-.49-.37-.86-.22L413,96l.15.53.24.16.42.12.74.12.53-.24.58-.45.48-.25.23.34.31-.17.7-.54.29-.11.4,0,.42-.1.38-.19.31-.26.11.19.05.05.07,0,.17.14-.1.38-.18.1H419l-.29.11-.79.6-.88.32-.37.2-.46.38-.47.28-.6.15-1.24.07-.46-.15-.4-.22-.32.07-.22.7-.4-.18.19.93.65.5.92.17,1.72-.1.27-.14.36-.28.48-.5h.2l.92.47,0,.16-.64.48-.12.33.24.33.36.32.23.31-.49.45-.12.15,0,.1v1.52l.11.22.26-.44.23.34-.27,1.3.25.58.15-.07.46-.13-.16.27-.46.33-.2.2-.12.43-.06.49-.12.32-.31,0-.31.59-.3-.33-.28-.66-.29-.41v.2l0,.41,0,.2-.59-.31-.29-.08-.34,0,.16-.31,0-.28-.11-.24-.28-.17.4,0,.43-.15.29-.14,0-.07-.32,0-1.18-.36.44-.29,0-.33-.28-.27-.49-.11-.42-.22-.66-1-.59-.43-.44-1-.41-.22-.42.13-.29.31-.47.78-.15-.42,0-.4.32-.8-.37,0-.22.16-.13.27-.08.33.18,1.35.87,1.35,4,4.1,1.52,2.23.55,1.31.64,2.76,1.19,3.33.34.52.58.25.69-.19.63-.45.41-.52.69.52.25,0,.28-.3.14-.33.18-.7.26-.37.77-.46,1-.23,2-.09,1.89.28-.12.32-.29.29-.35.21-.34.08-.33.36.05.66.43.29.75-.73.26.44.21.56.27.37.46-.13.56.39,1.49.47,0,.32.24.34.14.4-.07.34-.41.14-.39-.18-1.11-1-.72.06-.67.42-1.21,1.18,0-.64-.2-.07-1.59,1.11-.44.18.52.19,1.48.23.58,0-.43.27-.38,0-.87-.13-.34.2.07.46.37.75-.32.69-.5-.32-.43-.73-.11-1-1.48-2.31.06-.18.28-.32.06-.31-.3-.24-.43-.12-1.16.29-.82-.16-.48,0,.2.81L422,122l.18.63.11.25.69,1,.3.93,1.18,2.25.43.54.65.44.41-.16.84-1.2.24-.19.57-.29.29-.2.4-.16.3.12.15.21-.06.11-.71.24-.39.56-.25.67-.32.55-.33.17-.86.18-.33.16-.26.35v.31l.31,1.35,1.69,3.24,1.87,5.75.5.46.9-.32.2.05.17.09.12,0,.15-.13.11-.33.14-.14,1.21-.6.21.45-.1.4-.31.33-.42.24.29,0,.25.12.17.18.11.25-1.58.2-1.65,0-1.39.4-.79,1.38-.21,2.77.1.54.81.47.37-.37.25-.69.47-.51.68.06.35.5,0,.57-.48.28-.92.81-.37.14-.29,0-.26.1-.26.31-.13.32-.1.47,0,.43.29.18.47-.08.2-.2.11-.29.22-.34.59-.13.82.21.58.44-.08.57.22.22.22-.16.22-.06h.56l-.54.62-.82,0-.9-.1-.78.23.6.49.22.13-.6.24-.41-.22-.36-.37-.45-.27v.42h-.18l-.19-.17-.2-.22-.15-.28,0-.33-.46.15-.55.09-.55,0-.46-.2-.14.43.15.51.24.54.15.52,0,.61L425,153.5l-.15,1.72-.22,1.13-.38,1-1,1.85-.24,1.09-.07,5.05-.11.51-.19.44-.08.44.19.52-.45.1-.17.31v.9l-.06.38-.28.69-.24,1.07-.44.61-3.51,2.86-1.28.76-1.42.37-3.9-.22-.65.15-7.48,3.66-3,1.05-1.33.84-.86,1.31-.39,1.39-.14,1.35.17,1.34.56,1.35.88,1.17,1.07.9,4,2.29,1.69.45,5,.61,1.58.39,1.46.64,1.2,1,1.71,2.09.55.53,3.12,2.28.7.35.75.15,1.79.13,2.35.68,2.38,0,.76.11,1.62.59,2.05,1,2.67,2.34.59.83L438,207.8l.47.67.38.77.55,1.58.38,1.91.46.69,1,.2.93-.29.71-.56.55-.74.43-.81H444l0,.73-.25.6-.4.47-.51.38-.65.38-.37.16-.38.08-.48-.05-.32-.09-.18.1-.12,1.16-.36,1.68-.26.51,0,.25,0,.43.08.45.2.45-.2.1-.26,0h-.22l-.09.07v.17l0,.19v.15l-.17.67-.1,1.65-.25.6-.31.5-.79,2-1.38,2.34-1.63,2.1-1.74,1.43-.27.44-.62,1.34-.09.73-.08.29-.22.36-.26.27-.34.27-.37.2-.33.08-.35.12-.51.54-.34.12-.23.18.22.39.35.35.16.08.11.39v.3l-.15.26-.38.27-.38-.77-.29,0-.39.33-.63.22L427,238l-.72,1.25-.74.51-1.13,1-.49.33-1.32.2-.53.22-.34.58.27,1,1.07.84,1.43.56,1.34.21.39-.14.36-.27.33-.19.31.09.33.18.32,0,.26-.19.2-.24.19-.66-.42-.29-1.37-.26.17-.47.25-.36.34-.29.46-.28.61-.22.86-.11.77.17.34.66-.14.74-.64,1.15-.22.62,0,.72.2.53.05.48-.38.56.06.25.39.3.65.36.47.08.32,0,.28-.16,1.43-1.18.67-.35.75-.15.8.07,3.49,1,.33.2.13.32-.48,2.18,0,.41.19.36.25.29.12.33-.14.44.45.29.28.91.46.2,2.24-.17.48-.14,1-.83.49-.26,2-.61,6.44-3.81,1.72-.67,1.46-.8,1.08-.87,4.46-2.77,3-3.14.62-1.11.94-2.66.32-.62.51-.66.62-.54,1.45-.45.45-.57.46-1.38,1-1.95.68-.83,1.13-2.2.19-.27.21-.12.48-.05.2-.1.58-.84.16-.32.12-.34,0-.3.26-.37,1.75-1.33,1.69-2.12.57-.14.73.13.71,0,.51-.65.32-2.08,1.88-2.95-.3,0-.28.13-.23.2-.19.26.1-.59.27-.49.72-.81.33-.18.26.14.25.22.29.1.24-.08,1.27-.9,1.18-1.32.72-1.09.47-1,.08-.14.37-.44.06-.14,0-.2-.05-.74,0-.38.13-.28.4-.48.62-1.19,1-2.58.4-.57.14-.08.46-.15.11-.06.06-.19,0-.18,0-.13v-.11l.67-2,.22-.32.68-.21.36-.17.32-.23.13-.22.31-.72.52-.58.1-.4-.93-.19-1,.1H493l-.39-.19-.2-.16-.77-.45-.48-.2-.17-.16h-.19l-.29.42-.09.36.06.63-.12.17-.49-.27.07-.82.57-1.55-.18-2.73-.21-.6-.33-.32-.33-.21-.25-.26-.1-.49,0-.51.1-.39.2-.33.37-.37.32-.81.11-.09.68-.42,1.05-.89.71-.75.4-.57.31-.64.12-.65.35-.36,4-1.49,5.42-2.07.77-.54.27.07.26.19.37.11,4.73.1,4.63.17.45.13.89.48.31.12.37-.45.56,0,.42.24,0,.34-.27.33-.26.42-.23.48-.15.48,0,.86.23.94.8,1.8.44-.39.47-.29.36-.33.25-.94.7-1.47,1.6-1.28-.41-.74-1-.39-2-.17L518,178l.39-.43.23-.43-.25-.57.21-.49.08-1.15.39-.87.32-1.71,0-1.53.18-.66.52-.73.06-.34-.24-.32-.55-.45-.06-.14-.09-.31,0-.15,0-.35.1,0,.19.06.26-.09.61-.36.74-.15.74.13,1.16.84.52-.22,3-2.06,3.29-2.89.17-.24,0-1.89.12-.26,1.11-.45.2-.25,0-.41-.17-.31-.3-.21-.36-.1.19-.38.07-.64.13-.38.47-.4.26-.28.09-.34-.3-.39-.56-.51-.41-.58.17-.6.44-.51.35-.58.09-.58-.73-1.24.29-.45.59-.36.47-.39.16-.76-.31-.64-.43-.61-.22-.69.09-.31.22-.29.49-.5.33-.46.82-1.84.42-.64,1.05-.58.41-.73.59-1.36,1.11-.92.54-.74.25-.26.06-.49-.46-.59Zm-71.28,33.2-.22.27-1.17.75-1.31,1.15-.51.25-1,.33-.35.22-.46.45-.29-.14-.36-.06h-.65l-.49.07-.16.21.1.32.25.4-.48.11-1.22-.11-.45.07-1.26.54.14-.79.22-.39.29-.92,1.19-1.69.16-.42-.08-.65-.27-.34-.44,0-1.06.63-.29-.22-.09-.49v-.51l.26-1.07.57-.9.86-.62,1.69-.36.18.07.07.38.12.12.28-.2.3-.28.19-.15.68.11.1.3-.08.45.19.55.75-.64.46-.2.21.33,0,.48.12.35.27.21.48.07.32,0,.43-.13.38-.28.17-.47.12-.13.27.08.28.21.12.24-.1.69v.11l.19.31.19.47.13.51ZM429.13,99.71l-.07.35.29.72v.32l-.43.27.29.12h1l.44-.11.06-.29-.2-.7-.16-.4-.39-.35-.46-.15Zm7.64-4.78.49-.06.44-.13.26-.25v-.37l-.21-.3-.26-.24-.12-.19-.4,0-.75.33-.42.56.57.65Zm-2.71,16.72.37-.26.3,0,.64.49-.22.22,1.19.36.63.08.61-.07.58-.17h.24l.38,0,.13-.06.08-.22,0-.29-.23-.59,0-.29.32-.24.41-.1.23-.15-.26-.4-.3-.31-.15-.09-.66.29-1.28.91-.55.29-.3-.15-.24-.29-.32-.16-1.47,0-.23,0-.25.36-.07.5.12.34Z"/></g></svg>