<svg xmlns="http://www.w3.org/2000/svg" viewBox="0 0 356.24 228.51"><defs><style>.cls-1{fill:#fff;stroke:#333;stroke-linecap:round;stroke-linejoin:round;stroke-width:2px;}</style></defs><g id="Switzerland"><polygon class="cls-1" points="354.64 136.7 353.02 135.32 349.67 134.95 348.26 133.31 347.6 131.12 347.96 130.05 348.81 129.24 349.57 127.89 349.74 126.27 349.67 124.96 349.98 123.92 351.33 123.06 352.26 121.63 352.07 120.05 351.5 118.39 351.36 116.69 353.09 114.63 353.54 113.9 353.81 112.87 354.23 109.19 354.05 106.74 355.02 102.85 354.61 100.92 353.92 100.08 351.22 97.96 349.6 95.32 348.77 94.45 348.77 94.43 348.36 94.16 347.93 94.08 347.5 94.16 345.22 95.47 343.24 97.74 341.87 100.36 341.82 102.52 339.87 102.6 338.35 102.2 337.07 102.45 335.87 104.45 335.5 105.91 335.45 106.86 335.23 107.74 334.42 108.91 331 110.65 328.96 111.23 327.34 111.17 323.96 110.08 322.18 109.05 319.16 106.17 310.74 103.46 308.81 101.97 307.81 100.56 307.67 99.48 307.93 98.24 308.12 95.55 308.45 94.45 308.45 93.78 308.15 93.42 307.67 93.46 307.32 93.18 307.46 91.88 292.62 87.19 291.31 86.99 287.21 87.5 285.72 87.11 284.12 87.63 279.32 86.83 277.54 86.31 277.46 85.24 278.37 84.01 279.58 82.77 280.32 81.24 280.29 78.78 279.63 76.94 278.79 75.28 278.16 73.38 278.37 69.5 279.72 65.61 281.01 63.41 283.55 59.14 286.2 55.91 286.51 55.11 286.93 53.08 287.29 52.05 290.33 48.2 291.11 46.44 291.16 41.54 288.91 39.56 286 38.23 283.67 34.73 283.08 32 283.08 31.99 261.55 18.58 258.49 17.87 255.56 17.87 254.49 16.22 250.14 16.22 241.41 15.23 239.91 15.82 238.66 17.18 235.8 18.09 232.73 18.38 230.81 17.87 228.54 16.17 227.36 15.01 227.36 14.2 228.79 13.86 226.78 11.94 224.2 10.44 222.08 10.35 221.39 12.63 222.03 13.35 217.87 13.41 217.73 12.65 217.53 11.77 216.9 11 216.58 10.04 216.84 9.28 217.87 7.71 218.09 7.27 217.56 6.09 216.8 5.94 215.94 6.12 215.11 5.94 214.54 5.02 213.92 3.67 213.18 2.53 212.14 2.18 211.44 2.93 211.04 5.47 210.07 6.11 209.28 5.53 209 4.12 208.93 2.61 208.83 1.77 207.36 1.11 205.41 1 204.17 1.71 204.9 3.55 203.7 4.16 199.48 4.99 198.61 4.97 197.99 5.34 196.92 6.9 196.54 7.75 195.96 10.07 195.13 10.86 193.14 11.96 192.37 12.84 192.28 13.7 192.61 14.54 192.82 15.53 192.3 16.8 193.54 17.25 193.92 17.31 195.94 18.84 197.56 19.77 198.96 19.7 200.13 19.1 201.2 18.32 202.38 17.74 206.21 17.09 207.29 17.27 208.55 17.79 209.26 17.86 208.83 20.61 208.31 20.35 208.26 19.64 208.17 19.45 207.85 19.46 207.43 19.63 207.14 19.87 206.97 20.51 207.1 21.03 207.28 21.49 207.31 21.89 207.22 22.68 207.26 23.51 207.17 24.37 206.66 25.27 205.6 25.63 204.74 24.56 203.79 22.99 202.58 21.85 200.24 22.09 197.84 23.68 196.92 25.67 196.82 26.23 194.4 26.63 189.38 26.6 186.4 25.8 185.64 25.3 185.09 24.18 184.67 23.06 184.24 22.56 183.32 22.47 181.29 21.84 179.87 21.84 175.63 22.56 175.23 22.83 174.84 23.4 174.32 23.96 172.87 24.39 171.18 25.31 170.52 25.8 169.87 26.57 169.56 27.16 169.19 27.67 168.43 28.18 164.9 28.97 154.68 28.97 154.47 28.48 154.32 27.39 154.06 26.3 153.59 25.8 148.54 25.5 147.43 24.93 145.98 27.17 144.74 28.67 143.26 29.51 136.73 30.87 135.01 30.63 130.94 28.49 132.99 28.5 133.84 27.7 134.87 24.79 133.08 24.98 129.18 26.16 129.06 26.26 126.28 27.23 124.39 28.29 120.96 31.09 121.15 31.17 122.46 32.17 122.72 32.17 122.76 33.33 122.41 33.99 121.79 34.2 120.96 34.02 120.51 34.27 120.41 34.64 120.58 35.1 121.14 35.89 121.22 36.17 121.2 36.49 121.1 36.81 120.96 37 119.77 38.09 118.75 37.94 117.72 37.29 116.51 36.87 115.6 37.13 115.61 37.85 115.99 38.56 116.27 38.84 116.65 39.38 116.79 40.03 116.53 41.12 114.97 43.15 112.78 44.03 107.33 43.79 105.26 44.23 102.29 45.52 101.77 45.63 101.15 45.36 100.84 44.95 100.62 44.54 100.29 44.27 98 43.55 96.29 42.53 95.84 40.64 97.25 37.35 95.13 37.57 94.08 37.4 93.06 36.81 91.21 36.42 87.3 37.11 85.28 36.81 84.55 36.26 83.83 36.08 83.14 36.26 82.43 36.81 80.96 37.25 81.17 38.55 81.96 40.15 82.36 41.52 81.76 42.5 80.6 43.5 79.33 44.23 77.27 44.69 77.13 46.87 75.13 48.07 73.96 49.58 72.99 51.39 72.59 52.87 81.93 51.95 83.38 51.25 84.55 52.21 85.73 53.27 86.56 54.45 85.93 55.72 85.21 56.18 84.4 56.41 83.59 56.88 82.43 58.43 82.02 58.6 81.31 58.69 79.82 60.21 79.31 62.58 79.64 65.44 74.3 69.35 72.03 71.69 70.54 74.16 65.4 78.92 63.03 79.74 63.12 81.71 62 82.29 61.71 82.49 61.41 83.22 59.45 83.93 58.7 84.66 57.65 86.48 58.6 88.61 56.81 91.2 51.56 95.19 43.1 97.85 39.31 100.05 38.13 104.07 38.46 105.11 39.52 107.1 39.76 108.36 39.64 109.95 39.2 111.05 38.65 112.03 37.41 115.75 37.31 116.31 37.51 116.96 37.93 117.52 38.51 118.16 38.55 120.08 38.26 121.04 37.38 122.15 36.55 122.76 33.92 124.15 31.87 126.47 31.09 127.14 25.47 130.22 14.91 139.88 13.86 141.26 14.1 142.76 16 144.89 13.22 148.39 10.49 153.08 9.59 154.04 9.28 154.74 9.28 155.32 9.46 155.85 9.64 156.32 9.7 156.67 9.7 157.53 9.87 158.31 9.72 159.05 8.82 159.92 13.04 162.52 14.2 163.76 15.15 165.48 15.27 166.73 12.73 172.42 12.46 173.3 11.91 176.51 11.87 177.72 11.94 178.78 11.6 179.53 9.87 180.06 9.42 180.12 8.94 180.06 8.32 179.86 8.18 179.85 8.04 179.86 7.92 179.91 3.21 182.21 1.31 183.42 1 184.78 1.83 186.34 3.21 188.07 2.97 189.04 2.38 190.18 1.33 192.63 3.21 191.51 6.78 190.66 10.35 190.52 13.03 191.71 15.56 190.4 19.58 185.71 24.61 182.39 26.64 180.24 26.23 177.63 25.68 177.4 24.36 178 23.54 177.57 23.21 177.09 22.47 175.22 22.41 174.76 21.69 172.83 21.36 171.71 21.79 170.16 23.43 167.91 25.68 164.95 28.23 162.75 30.65 161.96 33.23 161.84 35.79 161.19 42.48 156.6 47.51 155.6 52.73 155.77 64.43 158.81 65.62 159.38 66.35 160.51 66.52 162.67 65.95 164.57 63.88 166.99 63.47 168.29 64.97 170.89 67.75 173.84 69.54 176.91 66.75 182.32 65.4 186.38 64.67 190.24 65.36 192.14 71.61 193.52 72.8 194.69 72.72 195.54 72.16 196.4 71.54 197.18 71.18 197.77 71.41 197.65 71.54 198.77 71.56 199.95 71.44 200.05 71.47 200.94 71.32 201.4 71.37 201.75 72.06 202.28 72.8 202.38 73.41 201.93 73.96 201.35 74.61 201.08 76.41 201.86 81.72 207.87 82.1 208.12 82.38 209.33 83.28 211.67 83.83 213.72 84.26 214.85 84.8 215.76 88.31 219.71 90.14 220.79 92.56 221.28 95.13 221.24 97.5 220.8 102.33 218.81 104.54 217.44 105.57 217.09 111.47 217.72 113.99 216.84 118.63 213.44 120.96 212.43 122.62 212.22 123.48 211.1 124.24 209.81 125.55 209.14 133.56 211.14 134.78 211.85 135.97 212.94 137.44 215.09 137.56 215.38 138.53 215.71 139.18 215.56 139.77 215.27 140.53 215.19 144.33 216.57 146.47 216.52 147.88 216.96 148.33 216.97 149.31 216.44 149.5 216.07 149.44 215.48 149.68 214.32 151.5 210.84 153.59 209.38 159.17 208.12 159.91 207.9 160.48 207.43 161.45 206.15 161.51 205.9 162.27 204.23 162.41 204 162.83 200.8 162.84 199.52 163 198.23 163.57 197.07 164.34 196.46 165.98 196.29 166.83 196.01 170.26 193.03 171.97 189.37 171.76 185.22 169.42 180.74 167.59 179.15 167.31 178.71 167.66 177.76 168.43 176.65 169.97 175.09 171.66 174.32 175.08 173.55 176.7 172.42 180.56 167.33 182.77 166.2 183.69 165.51 184.46 164.57 184.95 163.53 184.91 162.39 184.4 162 184.08 161.51 184.74 160.07 186.41 158.3 188.54 157.14 192.92 156.2 195.18 156.59 196.27 158.16 196.58 160.72 196.61 164.14 196.35 167.41 195.08 173.28 194.82 176.2 195.13 178.96 195.99 180.78 197.42 181.97 199.48 182.79 201.65 183.88 203.88 186.17 208.83 193.5 209.59 193.88 211.11 194.41 214.76 196.54 216.15 196.62 216.72 196.3 217.94 195.22 218.42 195 219.06 195.23 219.65 196.29 220.25 196.69 221.5 196.88 223.91 196.82 225.08 197.23 227.09 199.86 225.93 202.51 223.69 205.25 222.31 208.41 222.01 208.95 221.87 209.26 223.22 209.33 224.43 209.77 228.92 212.18 229.47 212.6 229.97 213.31 230.75 215.1 232.09 217.53 232.75 219 233.2 220.47 233.33 222.42 233.01 223.81 232.54 225.15 232.25 226.88 235.35 225.93 237.92 227.08 240.29 227.51 242.79 224.44 244.76 220.63 245.05 218.72 244.17 216.85 243.41 216.39 241.72 216.04 240.94 215.6 240.24 214.55 239.58 212.5 238.73 211.64 238.56 211.35 238.51 211.07 238.56 210.78 238.73 210.51 241.32 208.12 239.92 204.2 240.27 202.92 242.27 201.36 244 200.82 244.74 200.38 245.36 199.33 245.62 197.94 245.45 195.4 245.76 193.94 247.21 191.76 252.9 187.9 253.52 186.74 253.9 185.44 254.33 184.31 255.18 183.69 256.13 183.24 257.04 182.39 257.75 181.24 258.92 177.2 261.22 172.4 261.7 169.9 261.6 168.44 260.55 164.42 260.53 162.8 260.74 161.36 260.58 160.24 259.53 159.5 258.77 157.97 259.39 155.19 260.77 152.45 262.25 151.06 266.08 150.59 267.63 151 267.71 152.41 269.71 154.32 270.29 154.57 271.16 154.24 271.54 153.56 271.81 152.75 272.33 152.02 273.61 151.09 274.23 150.95 274.47 151.66 274.95 162.56 274.83 164.29 274.99 164.92 275.56 165.48 277.28 166.45 277.99 167.02 279.54 171.1 280.54 172.49 282.22 173.62 284.03 174.28 293.04 174.39 294.52 173.79 295.71 172.13 295.75 171.24 295.63 169.95 295.78 168.66 296.63 167.69 297.49 167.71 299.39 168.86 300.39 169.09 302.03 168.55 307.26 165.87 310.67 165.27 312.21 165.4 313.81 165.82 315.78 167.1 316.3 168.95 316.33 171.19 316.85 173.67 317.99 175.23 321.1 177.97 321.89 179.91 321.96 182.46 324.55 182.51 327.86 181.25 330.07 179.87 331.09 177.72 330.08 175.69 326.84 172.4 326.13 171.13 325.82 170.18 325.86 169.14 326.27 167.6 326.86 166.51 328.5 165.02 329.07 164.27 329.65 161.79 329.08 160.53 327.72 159.99 324.2 159.3 321.91 158.41 320.68 156.86 322.06 154.51 321.37 154.05 320.99 153.41 320.82 152.59 320.71 151.54 321.06 150.32 321.06 147.83 321.18 147.01 321.86 146 323.55 144.31 324.2 143.44 325.17 139.73 325.51 138.88 326.27 138.47 333.69 136.33 335.71 136.31 336.97 137.33 337.11 138.61 336.69 140.96 337.04 142.19 340.29 143.31 340.89 143.85 341.3 144.43 341.8 144.95 342.68 145.36 343.7 145.53 346.43 145.26 352.05 146.74 353.47 146.47 354.57 144.65 355.19 141.83 355.25 138.89 354.64 136.7"/></g></svg>